<svg width="329" height="60" viewBox="0 0 329 60" fill="none" xmlns="http://www.w3.org/2000/svg">
<path fill-rule="evenodd" clip-rule="evenodd" d="M55.7278 4.14995C55.7278 1.858 53.8698 0 51.5779 0H27.8639C12.4751 0 -1.90735e-05 12.4751 -1.90735e-05 27.8639V28.5838C-1.90735e-05 36.6152 3.44844 43.8494 8.93706 48.9146C6.42425 51.7918 4.49363 54.3279 2.37433 57.733L5.44817 60C6.19735 57.1036 7.57972 55.0775 11.092 50.7126C15.7671 54.2326 21.5823 56.3207 27.8639 56.3207C43.1826 56.3207 55.7278 43.9025 55.7278 28.5838V4.14995ZM14.5765 42.7636C14.8869 42.4326 15.2054 42.0933 15.5327 41.7447C19.7506 37.2514 25.4084 31.2243 33.6068 21.9354C25.9412 32.2426 20.3962 39.2347 16.3564 44.2311C19.6149 46.6148 23.6288 48.0287 27.9747 48.046C38.9284 48.0898 47.8436 39.2456 47.8874 28.2919L47.9501 12.6084C47.9593 10.3165 46.1087 8.45105 43.8168 8.44189L28.1333 8.3792C17.1796 8.33542 8.26437 17.1797 8.22059 28.1333C8.19749 33.9117 10.6478 39.1228 14.5765 42.7636Z" fill="url(#paint0_linear_180_2750)"/>
<path d="M76.6925 6.45184V33.4043C76.6925 36.3574 77.462 38.6243 79.0009 40.2048C80.5399 41.7438 82.7027 42.5132 85.4895 42.5132C88.3178 42.5132 90.5015 41.7438 92.0404 40.2048C93.5794 38.6243 94.3488 36.3574 94.3488 33.4043V6.45184H103.146V33.3419C103.146 37.0437 102.335 40.184 100.713 42.7628C99.1321 45.3 96.99 47.2133 94.2864 48.5027C91.6245 49.7921 88.6506 50.4368 85.3647 50.4368C82.1204 50.4368 79.1673 49.7921 76.5053 48.5027C73.8849 47.2133 71.8053 45.3 70.2663 42.7628C68.7274 40.184 67.9579 37.0437 67.9579 33.3419V6.45184H76.6925Z" fill="white"/>
<path d="M155.477 14.9369C159.72 14.9369 163.13 16.2471 165.709 18.8674C168.33 21.4462 169.64 25.0648 169.64 29.7233V50H160.905V30.9087C160.905 28.2051 160.219 26.1463 158.846 24.7321C157.474 23.2763 155.602 22.5484 153.231 22.5484C150.86 22.5484 148.968 23.2763 147.554 24.7321C146.181 26.1463 145.495 28.2051 145.495 30.9087V50H136.76V30.9087C136.76 28.2051 136.074 26.1463 134.701 24.7321C133.329 23.2763 131.457 22.5484 129.086 22.5484C126.674 22.5484 124.761 23.2763 123.346 24.7321C121.974 26.1463 121.288 28.2051 121.288 30.9087V50H112.553V15.436H121.288V19.6161C122.411 18.1604 123.846 17.0165 125.592 16.1847C127.381 15.3528 129.336 14.9369 131.457 14.9369C134.161 14.9369 136.573 15.5192 138.694 16.6838C140.816 17.8068 142.459 19.4289 143.623 21.5502C144.746 19.5537 146.368 17.9524 148.49 16.7462C150.652 15.54 152.982 14.9369 155.477 14.9369Z" fill="white"/>
<path d="M186.882 42.8252H202.292V50H176.962V42.95L192.061 22.6108H177.025V15.436H202.105V22.4861L186.882 42.8252Z" fill="white"/>
<path d="M271.28 14.9369C275.522 14.9369 278.933 16.2471 281.512 18.8674C284.132 21.4462 285.443 25.0648 285.443 29.7233V50H276.708V30.9087C276.708 28.2051 276.022 26.1463 274.649 24.7321C273.276 23.2763 271.405 22.5484 269.034 22.5484C266.663 22.5484 264.771 23.2763 263.356 24.7321C261.984 26.1463 261.298 28.2051 261.298 30.9087V50H252.563V30.9087C252.563 28.2051 251.877 26.1463 250.504 24.7321C249.132 23.2763 247.26 22.5484 244.889 22.5484C242.477 22.5484 240.563 23.2763 239.149 24.7321C237.777 26.1463 237.09 28.2051 237.09 30.9087V50H228.356V15.436H237.09V19.6161C238.213 18.1604 239.648 17.0165 241.395 16.1847C243.184 15.3528 245.139 14.9369 247.26 14.9369C249.963 14.9369 252.376 15.5192 254.497 16.6838C256.618 17.8068 258.261 19.4289 259.426 21.5502C260.549 19.5537 262.171 17.9524 264.292 16.7462C266.455 15.54 268.784 14.9369 271.28 14.9369Z" fill="white"/>
<path d="M292.453 32.5932C292.453 29.0994 293.139 26.0007 294.512 23.2971C295.926 20.5936 297.819 18.5139 300.189 17.0581C302.602 15.6024 305.285 14.8745 308.238 14.8745C310.816 14.8745 313.062 15.3944 314.976 16.4342C316.931 17.4741 318.49 18.7843 319.655 20.3648V15.436H328.452V50H319.655V44.9464C318.532 46.5686 316.972 47.9204 314.976 49.0018C313.021 50.0416 310.754 50.5615 308.175 50.5615C305.264 50.5615 302.602 49.8128 300.189 48.3155C297.819 46.8181 295.926 44.7177 294.512 42.0141C293.139 39.2689 292.453 36.1287 292.453 32.5932ZM319.655 32.718C319.655 30.5967 319.239 28.7874 318.407 27.2901C317.575 25.7511 316.452 24.5865 315.038 23.7962C313.624 22.9644 312.106 22.5484 310.484 22.5484C308.862 22.5484 307.364 22.9436 305.992 23.7339C304.619 24.5241 303.496 25.6887 302.623 27.2277C301.791 28.725 301.375 30.5136 301.375 32.5932C301.375 34.6729 301.791 36.503 302.623 38.0835C303.496 39.6225 304.619 40.8079 305.992 41.6398C307.406 42.4716 308.903 42.8876 310.484 42.8876C312.106 42.8876 313.624 42.4924 315.038 41.7022C316.452 40.8703 317.575 39.7057 318.407 38.2083C319.239 36.6694 319.655 34.8393 319.655 32.718Z" fill="white"/>
<path fill-rule="evenodd" clip-rule="evenodd" d="M218.758 50V15.436H210.023V50H218.758Z" fill="white"/>
<defs>
<linearGradient id="paint0_linear_180_2750" x1="27.8639" y1="0" x2="27.8639" y2="60" gradientUnits="userSpaceOnUse">
<stop stop-color="#7EE200"/>
<stop offset="1" stop-color="#0BE325"/>
</linearGradient>
</defs>
</svg>
