<svg width="748" height="454" viewBox="0 0 748 454" fill="none" xmlns="http://www.w3.org/2000/svg">
<rect width="748" height="454" fill="white"/>
<path d="M265.728 203.15C265.728 200.858 263.87 199 261.578 199H237.864C222.475 199 210 211.475 210 226.864V227.584C210 242.902 222.545 255.321 237.864 255.321C253.183 255.321 265.728 242.902 265.728 227.584V203.15Z" fill="#030533"/>
<path d="M218.221 227.133C218.264 216.18 227.18 207.335 238.133 207.379L253.817 207.442C256.109 207.451 257.959 209.316 257.95 211.608L257.887 227.292C257.844 238.246 248.928 247.09 237.975 247.046C227.021 247.002 218.177 238.087 218.221 227.133Z" fill="url(#paint0_linear_180_2739)"/>
<path d="M243.607 220.935C222.902 244.394 218.401 247.049 212.374 256.733L215.448 259C217.051 252.803 221.552 250.59 243.607 220.935Z" fill="#030533"/>
<path d="M286.692 205.452V232.404C286.692 235.357 287.462 237.624 289.001 239.205C290.54 240.744 292.703 241.513 295.489 241.513C298.318 241.513 300.501 240.744 302.04 239.205C303.579 237.624 304.349 235.357 304.349 232.404V205.452H313.146V232.342C313.146 236.044 312.335 239.184 310.713 241.763C309.132 244.3 306.99 246.213 304.286 247.503C301.624 248.792 298.651 249.437 295.365 249.437C292.12 249.437 289.167 248.792 286.505 247.503C283.885 246.213 281.805 244.3 280.266 241.763C278.727 239.184 277.958 236.044 277.958 232.342V205.452H286.692Z" fill="#030533"/>
<path d="M365.477 213.937C369.72 213.937 373.13 215.247 375.709 217.867C378.33 220.446 379.64 224.065 379.64 228.723V249H370.905V229.909C370.905 227.205 370.219 225.146 368.846 223.732C367.474 222.276 365.602 221.548 363.231 221.548C360.86 221.548 358.968 222.276 357.554 223.732C356.181 225.146 355.495 227.205 355.495 229.909V249H346.76V229.909C346.76 227.205 346.074 225.146 344.701 223.732C343.329 222.276 341.457 221.548 339.086 221.548C336.674 221.548 334.761 222.276 333.346 223.732C331.974 225.146 331.288 227.205 331.288 229.909V249H322.553V214.436H331.288V218.616C332.411 217.16 333.846 216.017 335.592 215.185C337.381 214.353 339.336 213.937 341.457 213.937C344.161 213.937 346.573 214.519 348.694 215.684C350.816 216.807 352.459 218.429 353.623 220.55C354.746 218.554 356.368 216.952 358.49 215.746C360.652 214.54 362.982 213.937 365.477 213.937Z" fill="#030533"/>
<path d="M396.882 241.825H412.292V249H386.962V241.95L402.061 221.611H387.025V214.436H412.105V221.486L396.882 241.825Z" fill="#030533"/>
<path d="M481.28 213.937C485.523 213.937 488.933 215.247 491.512 217.867C494.132 220.446 495.443 224.065 495.443 228.723V249H486.708V229.909C486.708 227.205 486.022 225.146 484.649 223.732C483.276 222.276 481.405 221.548 479.034 221.548C476.663 221.548 474.771 222.276 473.356 223.732C471.984 225.146 471.298 227.205 471.298 229.909V249H462.563V229.909C462.563 227.205 461.877 225.146 460.504 223.732C459.132 222.276 457.26 221.548 454.889 221.548C452.477 221.548 450.563 222.276 449.149 223.732C447.777 225.146 447.09 227.205 447.09 229.909V249H438.356V214.436H447.09V218.616C448.213 217.16 449.648 216.017 451.395 215.185C453.184 214.353 455.139 213.937 457.26 213.937C459.963 213.937 462.376 214.519 464.497 215.684C466.618 216.807 468.261 218.429 469.426 220.55C470.549 218.554 472.171 216.952 474.292 215.746C476.455 214.54 478.784 213.937 481.28 213.937Z" fill="#030533"/>
<path d="M502.453 231.593C502.453 228.099 503.139 225.001 504.512 222.297C505.926 219.594 507.819 217.514 510.189 216.058C512.602 214.602 515.285 213.874 518.238 213.874C520.816 213.874 523.062 214.394 524.976 215.434C526.931 216.474 528.49 217.784 529.655 219.365V214.436H538.452V249H529.655V243.946C528.532 245.569 526.972 246.92 524.976 248.002C523.021 249.042 520.754 249.562 518.175 249.562C515.264 249.562 512.602 248.813 510.189 247.315C507.819 245.818 505.926 243.718 504.512 241.014C503.139 238.269 502.453 235.129 502.453 231.593ZM529.655 231.718C529.655 229.597 529.239 227.787 528.407 226.29C527.575 224.751 526.452 223.587 525.038 222.796C523.624 221.964 522.106 221.548 520.484 221.548C518.862 221.548 517.364 221.944 515.992 222.734C514.619 223.524 513.496 224.689 512.623 226.228C511.791 227.725 511.375 229.514 511.375 231.593C511.375 233.673 511.791 235.503 512.623 237.084C513.496 238.622 514.619 239.808 515.992 240.64C517.406 241.472 518.903 241.888 520.484 241.888C522.106 241.888 523.624 241.492 525.038 240.702C526.452 239.87 527.575 238.706 528.407 237.208C529.239 235.669 529.655 233.839 529.655 231.718Z" fill="#030533"/>
<path fill-rule="evenodd" clip-rule="evenodd" d="M428.758 249V214.436H420.023V249H428.758Z" fill="#030533"/>
<path d="M419.02 206.543C419.031 203.792 421.27 201.572 424.02 201.583L427.958 201.598C428.534 201.601 428.998 202.069 428.996 202.644L428.98 206.583C428.969 209.333 426.731 211.554 423.98 211.543C421.23 211.532 419.009 209.293 419.02 206.543Z" fill="url(#paint1_linear_180_2739)"/>
<defs>
<linearGradient id="paint0_linear_180_2739" x1="238.133" y1="207.379" x2="237.975" y2="247.046" gradientUnits="userSpaceOnUse">
<stop stop-color="#7EE200"/>
<stop offset="1" stop-color="#0BE325"/>
</linearGradient>
<linearGradient id="paint1_linear_180_2739" x1="424.02" y1="201.583" x2="423.98" y2="211.543" gradientUnits="userSpaceOnUse">
<stop stop-color="#7EE200"/>
<stop offset="1" stop-color="#0BE325"/>
</linearGradient>
</defs>
</svg>
